<svg width="29" height="28" viewBox="0 0 29 28" fill="none" xmlns="http://www.w3.org/2000/svg">
<g clip-path="url(#clip0_3382_3592)">
<path fill-rule="evenodd" clip-rule="evenodd" d="M16.9251 4.15025L17.4837 3.59168C17.9185 3.15679 18.2937 2.78161 18.6279 2.49785C18.9807 2.19836 19.3639 1.9328 19.8351 1.7797C20.5381 1.5513 21.2953 1.5513 21.9982 1.7797C22.4694 1.9328 22.8527 2.19836 23.2055 2.49785C23.5397 2.78162 23.9149 3.1568 24.3497 3.5917L24.9083 4.15023C25.3432 4.5851 25.7183 4.96025 26.0021 5.29451C26.3016 5.6473 26.5672 6.03052 26.7203 6.50171C26.9487 7.20467 26.9487 7.96188 26.7203 8.66483C26.5672 9.13603 26.3016 9.51925 26.0021 9.87204C25.7183 10.2063 25.3432 10.5814 24.9083 11.0163L24.9083 11.0163L24.3497 11.5749L24.3497 11.5749L24.3496 11.575C23.9148 12.0098 23.5397 12.385 23.2055 12.6687C22.8527 12.9682 22.4694 13.2337 21.9982 13.3868C21.2953 13.6152 20.5381 13.6152 19.8351 13.3868C19.3639 13.2337 18.9807 12.9682 18.6279 12.6687C18.2937 12.3849 17.9185 12.0098 17.4837 11.5749L16.9251 11.0163C16.4902 10.5814 16.115 10.2063 15.8313 9.87204C15.5318 9.51925 15.2662 9.13603 15.1131 8.66483C14.8847 7.96188 14.8847 7.20467 15.1131 6.50171C15.2662 6.03052 15.5318 5.6473 15.8313 5.29451C16.115 4.96026 16.4902 4.58513 16.9251 4.15028L16.9251 4.15027L16.9251 4.15025ZM17.6101 6.80459C17.4043 7.04701 17.3523 7.16118 17.3323 7.22275C17.2561 7.45707 17.2561 7.70947 17.3323 7.94379C17.3523 8.00536 17.4043 8.11954 17.6101 8.36196C17.8247 8.6148 18.1312 8.92255 18.6068 9.39818L19.1018 9.89316C19.5774 10.3688 19.8852 10.6753 20.138 10.8899C20.3804 11.0957 20.4946 11.1477 20.5562 11.1677C20.7905 11.2438 21.0429 11.2438 21.2772 11.1677C21.3388 11.1477 21.453 11.0957 21.6954 10.8899C21.9482 10.6753 22.256 10.3688 22.7316 9.89316L23.2266 9.39818C23.7022 8.92255 24.0087 8.6148 24.2233 8.36196C24.4291 8.11954 24.4811 8.00536 24.5011 7.94379C24.5773 7.70947 24.5773 7.45707 24.5011 7.22275C24.4811 7.16118 24.4291 7.04701 24.2233 6.80459C24.0087 6.55175 23.7022 6.244 23.2266 5.76836L22.7316 5.27339C22.256 4.79776 21.9482 4.49129 21.6954 4.27665C21.453 4.07085 21.3388 4.01884 21.2772 3.99883C21.0429 3.9227 20.7905 3.9227 20.5562 3.99883C20.4946 4.01884 20.3804 4.07085 20.138 4.27665C19.8852 4.49129 19.5774 4.79776 19.1018 5.27339L18.6068 5.76837C18.1312 6.244 17.8247 6.55175 17.6101 6.80459ZM8.47831 15.1666H7.68838C7.07337 15.1666 6.54281 15.1666 6.10581 15.2023C5.64458 15.24 5.18582 15.3232 4.74438 15.5481C4.08581 15.8836 3.55038 16.4191 3.21482 17.0776C2.9899 17.5191 2.9067 17.9778 2.86901 18.4391C2.83331 18.8761 2.83332 19.4066 2.83334 20.0216V20.0216V20.8116V20.8116C2.83332 21.4266 2.83331 21.9572 2.86901 22.3941C2.9067 22.8554 2.9899 23.3141 3.21482 23.7556C3.55038 24.4141 4.08581 24.9496 4.74438 25.2851C5.18582 25.5101 5.64458 25.5933 6.10581 25.6309C6.54282 25.6667 7.07339 25.6666 7.6884 25.6666H8.47829C9.09331 25.6666 9.62387 25.6667 10.0609 25.6309C10.5221 25.5933 10.9809 25.5101 11.4223 25.2851C12.0809 24.9496 12.6163 24.4141 12.9519 23.7556C13.1768 23.3141 13.26 22.8554 13.2977 22.3941C13.3334 21.9571 13.3334 21.4266 13.3333 20.8116V20.0217C13.3334 19.4066 13.3334 18.8761 13.2977 18.4391C13.26 17.9778 13.1768 17.5191 12.9519 17.0776C12.6163 16.4191 12.0809 15.8836 11.4223 15.5481C10.9809 15.3232 10.5221 15.24 10.0609 15.2023C9.62388 15.1666 9.09332 15.1666 8.47831 15.1666ZM5.80369 17.6271C5.86138 17.5977 5.97888 17.5538 6.29582 17.5279C6.62638 17.5008 7.0607 17.4999 7.73335 17.4999H8.43335C9.10599 17.4999 9.54031 17.5008 9.87087 17.5279C10.1878 17.5538 10.3053 17.5977 10.363 17.6271C10.5825 17.739 10.761 17.9174 10.8729 18.137C10.9022 18.1946 10.9462 18.3121 10.9721 18.6291C10.9991 18.9596 11 19.394 11 20.0666V20.7666C11 21.4393 10.9991 21.8736 10.9721 22.2041C10.9462 22.5211 10.9022 22.6386 10.8729 22.6963C10.761 22.9158 10.5825 23.0943 10.363 23.2061C10.3053 23.2355 10.1878 23.2795 9.87087 23.3054C9.54031 23.3324 9.10599 23.3333 8.43335 23.3333H7.73335C7.0607 23.3333 6.62638 23.3324 6.29582 23.3054C5.97888 23.2795 5.86138 23.2355 5.80369 23.2061C5.58417 23.0943 5.40569 22.9158 5.29384 22.6963C5.26445 22.6386 5.22049 22.5211 5.19459 22.2041C5.16759 21.8736 5.16668 21.4393 5.16668 20.7666V20.0666C5.16668 19.394 5.16759 18.9596 5.19459 18.6291C5.22049 18.3121 5.26445 18.1946 5.29384 18.137C5.40569 17.9174 5.58417 17.739 5.80369 17.6271ZM21.3116 15.1666H20.5217C19.9067 15.1666 19.3761 15.1666 18.9391 15.2023C18.4779 15.24 18.0192 15.3232 17.5777 15.5481C16.9191 15.8836 16.3837 16.4191 16.0482 17.0776C15.8232 17.5191 15.74 17.9778 15.7023 18.4391C15.6666 18.8761 15.6667 19.4066 15.6667 20.0216V20.8116C15.6667 21.4266 15.6666 21.9571 15.7023 22.3941C15.74 22.8554 15.8232 23.3141 16.0482 23.7556C16.3837 24.4141 16.9191 24.9496 17.5777 25.2851C18.0192 25.5101 18.4779 25.5933 18.9391 25.6309C19.3762 25.6667 19.9067 25.6666 20.5217 25.6666H21.3116C21.9266 25.6666 22.4572 25.6667 22.8942 25.6309C23.3554 25.5933 23.8142 25.5101 24.2556 25.2851C24.9142 24.9496 25.4496 24.4141 25.7852 23.7556C26.0101 23.3141 26.0933 22.8554 26.131 22.3941C26.1667 21.9572 26.1667 21.4267 26.1667 20.8117V20.8117V20.8117V20.8116V20.0217V20.0215V20.0215V20.0215C26.1667 19.4065 26.1667 18.876 26.131 18.4391C26.0933 17.9778 26.0101 17.5191 25.7852 17.0776C25.4496 16.4191 24.9142 15.8836 24.2556 15.5481C23.8142 15.3232 23.3554 15.24 22.8942 15.2023C22.4572 15.1666 21.9267 15.1666 21.3116 15.1666ZM18.637 17.6271C18.6947 17.5977 18.8122 17.5538 19.1292 17.5279C19.4597 17.5008 19.894 17.4999 20.5667 17.4999H21.2667C21.9393 17.4999 22.3736 17.5008 22.7042 17.5279C23.0211 17.5538 23.1386 17.5977 23.1963 17.6271C23.4159 17.739 23.5943 17.9174 23.7062 18.137C23.7356 18.1946 23.7795 18.3121 23.8054 18.6291C23.8324 18.9596 23.8333 19.394 23.8333 20.0666V20.7666C23.8333 21.4393 23.8324 21.8736 23.8054 22.2041C23.7795 22.5211 23.7356 22.6386 23.7062 22.6963C23.5943 22.9158 23.4159 23.0943 23.1963 23.2061C23.1386 23.2355 23.0211 23.2795 22.7042 23.3054C22.3736 23.3324 21.9393 23.3333 21.2667 23.3333H20.5667C19.894 23.3333 19.4597 23.3324 19.1292 23.3054C18.8122 23.2795 18.6947 23.2355 18.637 23.2061C18.4175 23.0943 18.239 22.9158 18.1272 22.6963C18.0978 22.6386 18.0538 22.5211 18.0279 22.2041C18.0009 21.8736 18 21.4393 18 20.7666V20.0666C18 19.394 18.0009 18.9596 18.0279 18.6291C18.0538 18.3121 18.0978 18.1946 18.1272 18.137C18.239 17.9174 18.4175 17.739 18.637 17.6271ZM8.47831 2.33327H7.68838H7.68837C7.07337 2.33325 6.54281 2.33323 6.10581 2.36894C5.64458 2.40662 5.18582 2.48983 4.74438 2.71475C4.08581 3.05031 3.55038 3.58574 3.21482 4.24431C2.9899 4.68575 2.9067 5.14451 2.86901 5.60574C2.83331 6.04273 2.83332 6.57327 2.83334 7.18826V7.18831V7.97824V7.97829C2.83332 8.59328 2.83331 9.12382 2.86901 9.56081C2.9067 10.022 2.9899 10.4808 3.21482 10.9222C3.55038 11.5808 4.08581 12.1162 4.74438 12.4518C5.18582 12.6767 5.64458 12.7599 6.10581 12.7976C6.54282 12.8333 7.07339 12.8333 7.6884 12.8333H8.47829C9.09331 12.8333 9.62387 12.8333 10.0609 12.7976C10.5221 12.7599 10.9809 12.6767 11.4223 12.4518C12.0809 12.1162 12.6163 11.5808 12.9519 10.9222C13.1768 10.4808 13.26 10.022 13.2977 9.56081C13.3334 9.1238 13.3334 8.59324 13.3333 7.97822V7.18833C13.3334 6.57331 13.3334 6.04275 13.2977 5.60574C13.26 5.14451 13.1768 4.68575 12.9519 4.24431C12.6163 3.58574 12.0809 3.05031 11.4223 2.71475C10.9809 2.48983 10.5221 2.40662 10.0609 2.36894C9.62388 2.33323 9.09332 2.33325 8.47832 2.33327H8.47831ZM5.80369 4.79377C5.86138 4.76438 5.97888 4.72042 6.29582 4.69452C6.62638 4.66752 7.0607 4.66661 7.73335 4.66661H8.43335C9.10599 4.66661 9.54031 4.66752 9.87087 4.69452C10.1878 4.72042 10.3053 4.76438 10.363 4.79377C10.5825 4.90562 10.761 5.0841 10.8729 5.30362C10.9022 5.3613 10.9462 5.47881 10.9721 5.79575C10.9991 6.12631 11 6.56063 11 7.23327V7.93327C11 8.60592 10.9991 9.04024 10.9721 9.3708C10.9462 9.68774 10.9022 9.80525 10.8729 9.86293C10.761 10.0825 10.5825 10.2609 10.363 10.3728C10.3053 10.4022 10.1878 10.4461 9.87087 10.472C9.54031 10.499 9.10599 10.4999 8.43335 10.4999H7.73335C7.0607 10.4999 6.62638 10.499 6.29582 10.472C5.97888 10.4461 5.86138 10.4022 5.80369 10.3728C5.58417 10.2609 5.40569 10.0825 5.29384 9.86293C5.26445 9.80525 5.22049 9.68774 5.19459 9.3708C5.16759 9.04024 5.16668 8.60592 5.16668 7.93327V7.23327C5.16668 6.56063 5.16759 6.12631 5.19459 5.79575C5.22049 5.47881 5.26445 5.3613 5.29384 5.30362C5.40569 5.0841 5.58417 4.90562 5.80369 4.79377Z" fill="#919699"/>
</g>
<defs>
<clipPath id="clip0_3382_3592">
<rect width="28" height="28" fill="white" transform="translate(0.5)"/>
</clipPath>
</defs>
</svg>
