<svg width="20" height="20" viewBox="0 0 20 20" fill="none" xmlns="http://www.w3.org/2000/svg">
<path fill-rule="evenodd" clip-rule="evenodd" d="M13.0332 17.1609C14.5873 17.2523 15.8418 16.5348 16.9249 15.4516C17.2503 15.1262 17.2503 14.5985 16.9249 14.2731L14.9914 12.3396C14.5948 11.943 13.9517 11.943 13.5551 12.3396C12.7286 13.1661 11.3742 13.6608 10.1381 12.9636C9.60546 12.6631 8.99158 12.2324 8.38068 11.6215C7.76979 11.0106 7.33899 10.3967 7.03854 9.86403C6.34129 8.62795 6.83602 7.27356 7.6625 6.44708C8.05914 6.05044 8.05914 5.40736 7.6625 5.01071L5.72903 3.07725C5.40359 2.75181 4.87596 2.75181 4.55052 3.07725C3.46738 4.16039 2.74983 5.41484 2.84125 6.96896C2.93456 8.55522 3.88029 10.6566 6.61291 13.3892C9.34554 16.1218 11.4469 17.0676 13.0332 17.1609ZM12.9353 18.8247C10.7651 18.697 8.29971 17.433 5.4344 14.5677C2.5691 11.7024 1.30512 9.23708 1.17746 7.06683C1.04791 4.86445 2.09812 3.17262 3.37201 1.89874C4.34832 0.922426 5.93123 0.922426 6.90754 1.89874L8.84101 3.8322C9.88852 4.87972 9.88852 6.57808 8.84101 7.6256C8.35604 8.11056 8.27622 8.66588 8.49018 9.04518C8.72481 9.46113 9.06679 9.95054 9.55919 10.4429C10.0516 10.9353 10.541 11.2773 10.957 11.512C11.3363 11.7259 11.8916 11.6461 12.3765 11.1611C13.4241 10.1136 15.1224 10.1136 16.1699 11.1611L18.1034 13.0946C19.0797 14.0709 19.0797 15.6538 18.1034 16.6301C16.8295 17.904 15.1377 18.9542 12.9353 18.8247Z" fill="#2C3438"/>
</svg>
