<svg width="119" height="92" viewBox="0 0 119 92" fill="none" xmlns="http://www.w3.org/2000/svg">
<rect width="119" height="92" rx="20" fill="#F7F7F7"/>
<g clip-path="url(#clip0_3480_3621)">
<path fill-rule="evenodd" clip-rule="evenodd" d="M30.1186 35.3832C29.5185 35.3342 28.7421 35.3332 27.6 35.3332H26C25.2636 35.3332 24.6667 34.7362 24.6667 33.9998C24.6667 33.2635 25.2636 32.6665 26 32.6665L27.6551 32.6665C28.7283 32.6665 29.6142 32.6665 30.3358 32.7254C31.0852 32.7867 31.7742 32.9181 32.4213 33.2478C33.4248 33.7591 34.2407 34.575 34.752 35.5786C35.0817 36.2257 35.2132 36.9146 35.2744 37.6641C35.3334 38.3857 35.3333 39.2715 35.3333 40.3447V51.6549C35.3333 52.7282 35.3334 53.614 35.2744 54.3356C35.2132 55.0851 35.0817 55.774 34.752 56.4211C34.2407 57.4247 33.4248 58.2405 32.4213 58.7519C31.7742 59.0816 31.0852 59.213 30.3358 59.2742C29.6142 59.3332 28.7284 59.3332 27.6551 59.3332H26C25.2636 59.3332 24.6667 58.7362 24.6667 57.9998C24.6667 57.2635 25.2636 56.6665 26 56.6665H27.6C28.7421 56.6665 29.5185 56.6655 30.1186 56.6164C30.7032 56.5687 31.0021 56.4821 31.2106 56.3759C31.7124 56.1202 32.1203 55.7122 32.376 55.2105C32.4823 55.0019 32.5688 54.703 32.6166 54.1185C32.6656 53.5183 32.6667 52.7419 32.6667 51.5998V40.3998C32.6667 39.2577 32.6656 38.4813 32.6166 37.8812C32.5688 37.2967 32.4823 36.9977 32.376 36.7892C32.1203 36.2874 31.7124 35.8795 31.2106 35.6238C31.0021 35.5176 30.7032 35.431 30.1186 35.3832ZM18.3905 53.6093C17.8698 53.0886 17.8698 52.2444 18.3905 51.7237L22.781 47.3332H9.99999C9.26361 47.3332 8.66666 46.7362 8.66666 45.9998C8.66666 45.2635 9.26361 44.6665 9.99999 44.6665H22.781L18.3905 40.276C17.8698 39.7553 17.8698 38.9111 18.3905 38.3904C18.9112 37.8697 19.7554 37.8697 20.2761 38.3904L26.9428 45.057C27.4635 45.5777 27.4635 46.4219 26.9428 46.9426L20.2761 53.6093C19.7554 54.13 18.9112 54.13 18.3905 53.6093Z" fill="#095880"/>
</g>
<path d="M48.32 41V39.76C48.6027 39.7867 48.8373 39.7733 49.024 39.72C49.2107 39.6667 49.3627 39.552 49.48 39.376C49.6027 39.2 49.7093 38.944 49.8 38.608C49.8907 38.2667 49.9787 37.824 50.064 37.28C50.176 36.64 50.2693 35.9947 50.344 35.344C50.4187 34.688 50.4827 34.032 50.536 33.376C50.5947 32.7147 50.6427 32.0587 50.68 31.408C50.7173 30.752 50.7493 30.1093 50.776 29.48H58.192V41H56.768V30.832H52.128C52.096 31.3173 52.0613 31.8373 52.024 32.392C51.992 32.9413 51.9493 33.5147 51.896 34.112C51.8427 34.7093 51.7787 35.3253 51.704 35.96C51.6293 36.5947 51.536 37.24 51.424 37.896C51.3333 38.424 51.224 38.9067 51.096 39.344C50.9733 39.7813 50.8 40.1467 50.576 40.44C50.3573 40.7333 50.0667 40.9333 49.704 41.04C49.3467 41.1467 48.8853 41.1333 48.32 41ZM67.5045 32.36V41H66.1285V34.632L61.6005 41H60.4245V32.36H61.8005V38.64L66.3365 32.36H67.5045ZM74.945 41V37.888C74.657 38.032 74.3077 38.1547 73.897 38.256C73.4917 38.3573 73.057 38.408 72.593 38.408C71.713 38.408 71.0037 38.2107 70.465 37.816C69.9263 37.4213 69.5743 36.8533 69.409 36.112C69.361 35.888 69.3263 35.656 69.305 35.416C69.289 35.176 69.2783 34.9573 69.273 34.76C69.2677 34.5627 69.265 34.4187 69.265 34.328V32.36H70.705V34.328C70.705 34.4827 70.7103 34.6747 70.721 34.904C70.7317 35.128 70.7583 35.3467 70.801 35.56C70.9077 36.088 71.129 36.4853 71.465 36.752C71.8063 37.0187 72.2863 37.152 72.905 37.152C73.321 37.152 73.705 37.0987 74.057 36.992C74.409 36.8853 74.705 36.744 74.945 36.568V32.36H76.377V41H74.945ZM78.612 41V32.36H80.036V36H84.58V32.36H86.004V41H84.58V37.352H80.036V41H78.612ZM88.245 41L88.237 32.36H89.669V35.488H90.989C91.2397 35.488 91.4957 35.4933 91.757 35.504C92.0183 35.5147 92.245 35.5387 92.437 35.576C92.885 35.6667 93.277 35.8187 93.613 36.032C93.949 36.2453 94.2103 36.5333 94.397 36.896C94.5837 37.2587 94.677 37.7093 94.677 38.248C94.677 38.9947 94.4823 39.5867 94.093 40.024C93.709 40.456 93.205 40.744 92.581 40.888C92.3677 40.936 92.1223 40.968 91.845 40.984C91.573 40.9947 91.3143 41 91.069 41H88.245ZM89.669 39.824H91.093C91.253 39.824 91.4317 39.8187 91.629 39.808C91.8263 39.7973 92.0023 39.7707 92.157 39.728C92.429 39.648 92.6717 39.4907 92.885 39.256C93.1037 39.0213 93.213 38.6853 93.213 38.248C93.213 37.8053 93.1063 37.464 92.893 37.224C92.685 36.984 92.4103 36.8267 92.069 36.752C91.9143 36.7147 91.7517 36.6907 91.581 36.68C91.4103 36.6693 91.2477 36.664 91.093 36.664H89.669V39.824ZM95.669 41V32.36H97.093V41H95.669ZM103.059 31.352C102.659 31.352 102.293 31.2533 101.963 31.056C101.632 30.8587 101.368 30.5973 101.171 30.272C100.973 29.9413 100.875 29.5733 100.875 29.168H102.027C102.027 29.4507 102.128 29.6933 102.331 29.896C102.533 30.0987 102.776 30.2 103.059 30.2C103.347 30.2 103.589 30.0987 103.787 29.896C103.989 29.6933 104.091 29.4507 104.091 29.168H105.243C105.243 29.5733 105.144 29.9413 104.947 30.272C104.755 30.5973 104.491 30.8587 104.155 31.056C103.824 31.2533 103.459 31.352 103.059 31.352ZM106.411 32.36V41H105.035V34.632L100.507 41H99.3308V32.36H100.707V38.64L105.243 32.36H106.411ZM49.12 63V51.48H50.544V56.888L55.584 51.48H57.376L52.144 57.072L57.784 63H55.944L50.544 57.368V63H49.12ZM61.3573 63.24C60.7119 63.24 60.1706 63.1227 59.7333 62.888C59.3013 62.648 58.9733 62.3333 58.7493 61.944C58.5306 61.5547 58.4213 61.128 58.4213 60.664C58.4213 60.2107 58.5066 59.8187 58.6773 59.488C58.8533 59.152 59.0986 58.8747 59.4133 58.656C59.7279 58.432 60.1039 58.256 60.5413 58.128C60.9519 58.016 61.4106 57.92 61.9173 57.84C62.4293 57.7547 62.9466 57.6773 63.4693 57.608C63.9919 57.5387 64.4799 57.472 64.9333 57.408L64.4213 57.704C64.4373 56.936 64.2826 56.368 63.9573 56C63.6373 55.632 63.0826 55.448 62.2933 55.448C61.7706 55.448 61.3119 55.568 60.9173 55.808C60.5279 56.0427 60.2533 56.4267 60.0933 56.96L58.7413 56.552C58.9493 55.7947 59.3519 55.2 59.9493 54.768C60.5466 54.336 61.3333 54.12 62.3093 54.12C63.0933 54.12 63.7653 54.2613 64.3253 54.544C64.8906 54.8213 65.2959 55.2427 65.5413 55.808C65.6639 56.0747 65.7413 56.3653 65.7733 56.68C65.8053 56.9893 65.8212 57.3147 65.8212 57.656V63H64.5573V60.928L64.8533 61.12C64.5279 61.8187 64.0719 62.3467 63.4853 62.704C62.9039 63.0613 62.1946 63.24 61.3573 63.24ZM61.5733 62.048C62.0853 62.048 62.5279 61.9573 62.9013 61.776C63.2799 61.5893 63.5839 61.3467 63.8133 61.048C64.0426 60.744 64.1919 60.4133 64.2613 60.056C64.3413 59.7893 64.3839 59.4933 64.3893 59.168C64.3999 58.8373 64.4053 58.584 64.4053 58.408L64.9013 58.624C64.4373 58.688 63.9813 58.7493 63.5333 58.808C63.0853 58.8667 62.6613 58.9307 62.2613 59C61.8613 59.064 61.5013 59.1413 61.1813 59.232C60.9466 59.3067 60.7253 59.4027 60.5173 59.52C60.3146 59.6373 60.1493 59.7893 60.0213 59.976C59.8986 60.1573 59.8372 60.384 59.8372 60.656C59.8372 60.8907 59.8959 61.1147 60.0133 61.328C60.1359 61.5413 60.3226 61.7147 60.5733 61.848C60.8293 61.9813 61.1626 62.048 61.5733 62.048ZM71.4133 63.248C70.5973 63.2427 69.9013 63.0667 69.3253 62.72C68.7493 62.368 68.3013 61.8533 67.9813 61.176C67.6613 60.4987 67.4826 59.6693 67.4453 58.688C67.4239 58.2347 67.4293 57.736 67.4613 57.192C67.4986 56.648 67.5573 56.1253 67.6373 55.624C67.7226 55.1227 67.8293 54.7093 67.9572 54.384C68.1013 53.9947 68.3039 53.6347 68.5653 53.304C68.8319 52.968 69.1306 52.6907 69.4613 52.472C69.7973 52.2427 70.1733 52.064 70.5893 51.936C71.0053 51.808 71.4399 51.7093 71.8933 51.64C72.3519 51.5653 72.8106 51.5013 73.2693 51.448C73.7279 51.3893 74.1653 51.32 74.5813 51.24L74.7253 52.52C74.4319 52.584 74.0853 52.64 73.6853 52.688C73.2853 52.7307 72.8693 52.7813 72.4373 52.84C72.0106 52.8987 71.5999 52.9813 71.2053 53.088C70.8159 53.1893 70.4799 53.3307 70.1973 53.512C69.7813 53.7627 69.4613 54.1387 69.2373 54.64C69.0186 55.136 68.8853 55.6933 68.8372 56.312C69.1679 55.8 69.5973 55.424 70.1253 55.184C70.6533 54.944 71.2159 54.824 71.8133 54.824C72.5866 54.824 73.2533 55.0053 73.8133 55.368C74.3733 55.7253 74.8026 56.2187 75.1013 56.848C75.4053 57.4773 75.5573 58.1947 75.5573 59C75.5573 59.8533 75.3866 60.6 75.0452 61.24C74.7039 61.88 74.2213 62.376 73.5973 62.728C72.9786 63.08 72.2506 63.2533 71.4133 63.248ZM71.5013 61.896C72.3386 61.896 72.9733 61.6373 73.4053 61.12C73.8373 60.5973 74.0533 59.904 74.0533 59.04C74.0533 58.1547 73.8293 57.4587 73.3813 56.952C72.9333 56.44 72.3039 56.184 71.4933 56.184C70.6719 56.184 70.0426 56.44 69.6053 56.952C69.1733 57.4587 68.9573 58.1547 68.9573 59.04C68.9573 59.9307 69.1759 60.6293 69.6133 61.136C70.0506 61.6427 70.6799 61.896 71.5013 61.896ZM84.3951 54.36V63H83.0191V56.632L78.4911 63H77.3151V54.36H78.6911V60.64L83.2271 54.36H84.3951ZM86.6276 63V54.36H88.0516V58H92.5956V54.36H94.0196V63H92.5956V59.352H88.0516V63H86.6276ZM100.005 63.24C99.1566 63.24 98.4153 63.0533 97.7806 62.68C97.1513 62.3013 96.6606 61.776 96.3086 61.104C95.9566 60.4267 95.7806 59.6373 95.7806 58.736C95.7806 57.792 95.954 56.976 96.3006 56.288C96.6473 55.5947 97.13 55.0613 97.7486 54.688C98.3726 54.3093 99.1033 54.12 99.9406 54.12C100.81 54.12 101.549 54.32 102.157 54.72C102.77 55.12 103.229 55.6907 103.533 56.432C103.842 57.1733 103.975 58.056 103.933 59.08H102.493V58.568C102.477 57.5067 102.261 56.7147 101.845 56.192C101.429 55.664 100.81 55.4 99.9886 55.4C99.1086 55.4 98.4393 55.6827 97.9806 56.248C97.522 56.8133 97.2926 57.624 97.2926 58.68C97.2926 59.6987 97.522 60.488 97.9806 61.048C98.4393 61.608 99.0926 61.888 99.9406 61.888C100.511 61.888 101.007 61.7573 101.429 61.496C101.85 61.2347 102.181 60.8587 102.421 60.368L103.789 60.84C103.453 61.6027 102.946 62.1947 102.269 62.616C101.597 63.032 100.842 63.24 100.005 63.24ZM96.8126 59.08V57.936H103.197V59.08H96.8126ZM107.846 63V55.656H104.838V54.36H112.278V55.656H109.27V63H107.846Z" fill="#095880"/>
<defs>
<clipPath id="clip0_3480_3621">
<rect width="32" height="32" fill="white" transform="translate(6 30)"/>
</clipPath>
</defs>
</svg>
