<svg width="20" height="20" viewBox="0 0 20 20" fill="none" xmlns="http://www.w3.org/2000/svg">
<g clip-path="url(#clip0_3382_7056)">
<path fill-rule="evenodd" clip-rule="evenodd" d="M10.0098 2.91672C10.661 2.91672 10.8507 2.92207 11.0202 2.96277C11.1903 3.0036 11.3528 3.07094 11.502 3.16232C11.6506 3.2534 11.7886 3.38379 12.249 3.84421L14.9058 6.50107C15.3663 6.9615 15.4967 7.09946 15.5877 7.24809C15.6791 7.39721 15.7465 7.55978 15.7873 7.72984C15.828 7.89935 15.8333 8.0891 15.8333 8.74024V13.9167C15.8333 14.6305 15.8327 15.1158 15.802 15.4909C15.7722 15.8562 15.7181 16.043 15.6517 16.1734C15.4919 16.487 15.2369 16.7419 14.9233 16.9017C14.793 16.9681 14.6061 17.0222 14.2408 17.0521C13.8657 17.0827 13.3805 17.0834 12.6667 17.0834H7.33333C6.61952 17.0834 6.13427 17.0827 5.7592 17.0521C5.39385 17.0222 5.20702 16.9681 5.07668 16.9017C4.76308 16.7419 4.50811 16.487 4.34832 16.1734C4.28192 16.043 4.22781 15.8562 4.19796 15.4909C4.16732 15.1158 4.16667 14.6305 4.16667 13.9167V6.08339C4.16667 5.36957 4.16732 4.88433 4.19796 4.50925C4.22781 4.1439 4.28192 3.95707 4.34832 3.82674C4.50811 3.51313 4.76308 3.25816 5.07668 3.09838C5.20702 3.03197 5.39385 2.97786 5.7592 2.94801C6.13427 2.91737 6.61952 2.91672 7.33333 2.91672H10.0098ZM11.4093 1.34215C11.0237 1.24958 10.6239 1.24977 10.0947 1.25003L10.0098 1.25005H7.33333L7.29892 1.25005C6.62811 1.25004 6.07448 1.25003 5.62348 1.28688C5.15507 1.32515 4.72448 1.40729 4.32003 1.61336C3.69283 1.93294 3.18289 2.44288 2.86331 3.07008C2.65724 3.47453 2.5751 3.90512 2.53683 4.37353C2.49998 4.82452 2.49999 5.37815 2.5 6.04895V6.04897V6.08339V13.9167V13.9511V13.9512C2.49999 14.622 2.49998 15.1756 2.53683 15.6266C2.5751 16.095 2.65724 16.5256 2.86331 16.93C3.18289 17.5572 3.69283 18.0672 4.32003 18.3867C4.72448 18.5928 5.15507 18.675 5.62348 18.7132C6.07447 18.7501 6.6281 18.7501 7.2989 18.7501H7.33333H12.6667H12.7011C13.3719 18.7501 13.9255 18.7501 14.3765 18.7132C14.8449 18.675 15.2755 18.5928 15.68 18.3867C16.3072 18.0672 16.8171 17.5572 17.1367 16.93C17.3428 16.5256 17.4249 16.095 17.4632 15.6266C17.5 15.1756 17.5 14.622 17.5 13.9512V13.9167V8.74024L17.5 8.65535C17.5003 8.12618 17.5005 7.72635 17.4079 7.34077C17.3262 7.00065 17.1916 6.6755 17.0088 6.37726C16.8016 6.03916 16.5188 5.75657 16.1444 5.38258L16.0843 5.32256L13.4275 2.6657L13.3675 2.60565C12.9935 2.2313 12.7109 1.94844 12.3728 1.74125C12.0746 1.55849 11.7494 1.42381 11.4093 1.34215ZM6.66667 10.0001C6.20643 10.0001 5.83333 10.3731 5.83333 10.8334C5.83333 11.2936 6.20643 11.6667 6.66667 11.6667H11.6667C12.1269 11.6667 12.5 11.2936 12.5 10.8334C12.5 10.3731 12.1269 10.0001 11.6667 10.0001H6.66667ZM6.66667 13.3334C6.20643 13.3334 5.83333 13.7065 5.83333 14.1667C5.83333 14.627 6.20643 15.0001 6.66667 15.0001H13.3333C13.7936 15.0001 14.1667 14.627 14.1667 14.1667C14.1667 13.7065 13.7936 13.3334 13.3333 13.3334H6.66667Z" fill="#095880"/>
</g>
<defs>
<clipPath id="clip0_3382_7056">
<rect width="20" height="20" fill="white"/>
</clipPath>
</defs>
</svg>
