<svg width="30" height="30" viewBox="0 0 30 30" fill="none" xmlns="http://www.w3.org/2000/svg">
<g clip-path="url(#clip0_3382_7080)">
<path fill-rule="evenodd" clip-rule="evenodd" d="M5.05969 15.7159L5.05742 15.7215L5.05705 15.7224C5.05362 15.7309 5.05034 15.7394 5.04721 15.748C4.98176 15.9272 4.98615 16.1159 5.04721 16.2832C5.05034 16.2917 5.05362 16.3003 5.05705 16.3087L5.05969 16.3153L5.06711 16.3332C5.07325 16.3479 5.0818 16.3681 5.0928 16.3934C5.1148 16.4439 5.14665 16.5148 5.18877 16.6032C5.27294 16.78 5.39844 17.0274 5.56862 17.3219C5.90817 17.9096 6.4302 18.693 7.16319 19.4783C8.63394 21.0541 10.9762 22.6562 14.3749 22.6562C17.7736 22.6562 20.1159 21.0541 21.5866 19.4783C22.3196 18.693 22.8417 17.9096 23.1812 17.3219C23.3514 17.0274 23.4769 16.78 23.561 16.6032C23.6032 16.5148 23.635 16.4439 23.657 16.3934C23.668 16.3681 23.6766 16.3479 23.6827 16.3332L23.6901 16.3153L23.6929 16.3085L23.6933 16.3073L23.6937 16.3065C23.6938 16.3061 23.694 16.3057 22.9686 16.0156L23.6937 16.3065C23.7318 16.2112 23.7501 16.1122 23.7501 16.0156C23.7501 15.9273 23.735 15.8376 23.7034 15.7502C23.7001 15.741 23.6966 15.7318 23.6929 15.7227L23.6925 15.7218L23.6901 15.7159L23.6827 15.698C23.6766 15.6832 23.668 15.6631 23.657 15.6378C23.635 15.5873 23.6032 15.5164 23.561 15.4279C23.4769 15.2512 23.3514 15.0038 23.1812 14.7092C22.8417 14.1215 22.3196 13.3382 21.5866 12.5529C20.1159 10.977 17.7736 9.375 14.3749 9.375C10.9762 9.375 8.63394 10.977 7.16319 12.5529C6.4302 13.3382 5.90817 14.1215 5.56862 14.7092C5.39844 15.0038 5.27294 15.2512 5.18877 15.4279C5.14665 15.5164 5.1148 15.5873 5.0928 15.6378C5.0818 15.6631 5.07325 15.6832 5.06711 15.698L5.05969 15.7159ZM21.8283 15.4909C21.9489 15.6997 22.0422 15.8787 22.1096 16.0156C22.0422 16.1525 21.9489 16.3314 21.8283 16.5403C21.5331 17.0512 21.0785 17.7327 20.4444 18.4122C19.1808 19.7661 17.2261 21.0937 14.3749 21.0937C11.5237 21.0937 9.56906 19.7661 8.30546 18.4122C7.67127 17.7327 7.21674 17.0512 6.92153 16.5403C6.80087 16.3314 6.70761 16.1525 6.64022 16.0156C6.70761 15.8787 6.80087 15.6997 6.92153 15.4909C7.21674 14.98 7.67127 14.2985 8.30546 13.619C9.56906 12.2651 11.5237 10.9375 14.3749 10.9375C17.2261 10.9375 19.1808 12.2651 20.4444 13.619C21.0785 14.2985 21.5331 14.98 21.8283 15.4909ZM12.8124 16.0156C12.8124 15.1526 13.512 14.4531 14.3749 14.4531C15.2378 14.4531 15.9374 15.1526 15.9374 16.0156C15.9374 16.8785 15.2378 17.5781 14.3749 17.5781C13.512 17.5781 12.8124 16.8785 12.8124 16.0156ZM14.3749 12.8906C12.649 12.8906 11.2499 14.2897 11.2499 16.0156C11.2499 17.7415 12.649 19.1406 14.3749 19.1406C16.1008 19.1406 17.4999 17.7415 17.4999 16.0156C17.4999 14.2897 16.1008 12.8906 14.3749 12.8906Z" fill="#2C3438"/>
</g>
<defs>
<clipPath id="clip0_3382_7080">
<rect width="20" height="20" fill="white" transform="translate(5 5)"/>
</clipPath>
</defs>
</svg>
