<svg width="29" height="28" viewBox="0 0 29 28" fill="none" xmlns="http://www.w3.org/2000/svg">
<g clip-path="url(#clip0_3382_3564)">
<rect x="5.16666" y="2.9165" width="18.6667" height="22.1667" rx="3" stroke="#919699" stroke-width="2"/>
<line x1="9.66666" y1="7.1665" x2="14.6667" y2="7.1665" stroke="#919699" stroke-width="2" stroke-linecap="round"/>
<line x1="6.16666" y1="11.25" x2="22.8333" y2="11.25" stroke="#919699" stroke-width="2" stroke-linecap="round"/>
<path fill-rule="evenodd" clip-rule="evenodd" d="M4 6.41667C4 3.83934 6.08934 1.75 8.66667 1.75H20.3333C22.9107 1.75 25 3.83934 25 6.41667V21.5833C25 24.1607 22.9107 26.25 20.3333 26.25H8.66667C6.08934 26.25 4 24.1607 4 21.5833V6.41667ZM8.66667 4.08333C7.378 4.08333 6.33333 5.128 6.33333 6.41667V9.91667H22.6667L22.6667 6.41667C22.6667 5.128 21.622 4.08333 20.3333 4.08333H8.66667ZM22.6667 12.25H6.33333V21.5833C6.33333 22.872 7.378 23.9167 8.66667 23.9167H20.3333C21.622 23.9167 22.6667 22.872 22.6667 21.5833L22.6667 12.25ZM8.66667 7C8.66667 6.35567 9.189 5.83333 9.83333 5.83333H14.5C15.1443 5.83333 15.6667 6.35567 15.6667 7C15.6667 7.64433 15.1443 8.16667 14.5 8.16667H9.83333C9.189 8.16667 8.66667 7.64433 8.66667 7Z" fill="#919699"/>
<path d="M8.66667 7C8.66667 6.35567 9.189 5.83333 9.83333 5.83333H14.5C15.1443 5.83333 15.6667 6.35567 15.6667 7C15.6667 7.64433 15.1443 8.16667 14.5 8.16667H9.83333C9.189 8.16667 8.66667 7.64433 8.66667 7Z" fill="#919699"/>
<path fill-rule="evenodd" clip-rule="evenodd" d="M4 6.41667C4 3.83934 6.08934 1.75 8.66667 1.75H20.3333C22.9107 1.75 25 3.83934 25 6.41667V21.5833C25 24.1607 22.9107 26.25 20.3333 26.25H8.66667C6.08934 26.25 4 24.1607 4 21.5833V6.41667ZM8.66667 4.08333C7.378 4.08333 6.33333 5.128 6.33333 6.41667V9.91667H22.6667V6.41667C22.6667 5.128 21.622 4.08333 20.3333 4.08333H8.66667ZM22.6667 12.25H6.33333V21.5833C6.33333 22.872 7.378 23.9167 8.66667 23.9167H20.3333C21.622 23.9167 22.6667 22.872 22.6667 21.5833V12.25Z" fill="#919699"/>
</g>
<defs>
<clipPath id="clip0_3382_3564">
<rect width="28" height="28" fill="white" transform="translate(0.5)"/>
</clipPath>
</defs>
</svg>
