<svg width="33" height="32" viewBox="0 0 33 32" fill="none" xmlns="http://www.w3.org/2000/svg">
<path d="M15.246 1.04687C16.0604 0.777996 16.9396 0.777996 17.754 1.04687C18.193 1.19179 18.5609 1.42012 18.907 1.67724C19.2329 1.91934 19.6016 2.2354 20.0253 2.59863L31.3677 12.3208C31.7914 12.6839 31.9441 13.2724 31.7505 13.7958C31.5569 14.3191 31.058 14.6665 30.5 14.6665H29.8333V23.9135C29.8333 24.5573 29.8334 25.1127 29.799 25.5714C29.7627 26.0549 29.6828 26.5372 29.4659 27.0078C29.0672 27.8727 28.3729 28.567 27.508 28.9657C27.0374 29.1827 26.5551 29.2626 26.0716 29.2988C25.6129 29.3332 25.0575 29.3332 24.4136 29.3332H21.1667C20.813 29.3332 20.4739 29.1927 20.2238 28.9426C19.9738 28.6926 19.8333 28.3534 19.8333 27.9998V22.1332C19.8333 22.1189 19.8333 22.1048 19.8333 22.0907C19.8333 21.4108 19.8319 20.9676 19.8064 20.6276C19.7815 20.2943 19.7389 20.169 19.7108 20.1083C19.5779 19.82 19.3465 19.5885 19.0582 19.4556C18.9974 19.4276 18.8721 19.385 18.5389 19.36C18.1919 19.334 17.7374 19.3332 17.0333 19.3332H15.9667C15.2626 19.3332 14.8081 19.334 14.4611 19.36C14.1278 19.385 14.0025 19.4276 13.9418 19.4556C13.6535 19.5885 13.422 19.82 13.2891 20.1083C13.2611 20.169 13.2185 20.2943 13.1935 20.6276C13.1675 20.9746 13.1667 21.4291 13.1667 22.1332V27.9998C13.1667 28.7362 12.5697 29.3332 11.8333 29.3332H8.58633C7.94253 29.3332 7.38707 29.3332 6.9284 29.2988C6.44492 29.2626 5.96261 29.1827 5.49202 28.9657C4.62709 28.567 3.93282 27.8727 3.53409 27.0078C3.31714 26.5372 3.23726 26.0549 3.20101 25.5714C3.16662 25.1127 3.16664 24.5573 3.16666 23.9135L3.16666 14.6665H2.49999C1.94203 14.6665 1.44307 14.3191 1.24948 13.7958C1.05589 13.2724 1.20863 12.6839 1.63226 12.3208L12.9747 2.59863C13.3984 2.2354 13.7671 1.91934 14.093 1.67724C14.4391 1.42012 14.807 1.19179 15.246 1.04687Z" fill="#919699"/>
</svg>
