<svg width="44" height="44" viewBox="0 0 44 44" fill="none" xmlns="http://www.w3.org/2000/svg">
<rect width="44" height="44" rx="12" fill="white"/>
<g clip-path="url(#clip0_3461_705)">
<path fill-rule="evenodd" clip-rule="evenodd" d="M22 10.5C19.3766 10.5 17.25 12.6266 17.25 15.25C17.25 17.8734 19.3766 20 22 20C24.6234 20 26.75 17.8734 26.75 15.25C26.75 12.6266 24.6234 10.5 22 10.5ZM19.25 15.25C19.25 13.7312 20.4812 12.5 22 12.5C23.5188 12.5 24.75 13.7312 24.75 15.25C24.75 16.7688 23.5188 18 22 18C20.4812 18 19.25 16.7688 19.25 15.25Z" fill="#919699"/>
<path fill-rule="evenodd" clip-rule="evenodd" d="M22 22C14.135 22 11.5 26.2774 11.5 28.5C11.5 29.4772 11.8301 30.3693 12.4804 31.0196C13.1307 31.6699 14.0228 32 15 32H29C29.9772 32 30.8693 31.6699 31.5196 31.0196C32.1699 30.3693 32.5 29.4772 32.5 28.5C32.5 26.2774 29.865 22 22 22ZM13.5 28.5C13.5 27.7226 14.865 24 22 24C29.135 24 30.5 27.7226 30.5 28.5C30.5 29.0228 30.3301 29.3807 30.1054 29.6054C29.8807 29.8301 29.5228 30 29 30H15C14.4772 30 14.1193 29.8301 13.8946 29.6054C13.6699 29.3807 13.5 29.0228 13.5 28.5Z" fill="#919699"/>
</g>
<defs>
<clipPath id="clip0_3461_705">
<rect width="24" height="24" fill="white" transform="translate(10 10)"/>
</clipPath>
</defs>
</svg>
