<svg width="24" height="24" viewBox="0 0 24 24" fill="none" xmlns="http://www.w3.org/2000/svg">
<path d="M12 2.5C16.4281 2.5 18.6423 2.4999 20.0381 3.85059C20.0757 3.887 20.113 3.92429 20.1494 3.96191C21.5001 5.35767 21.5 7.57189 21.5 12C21.5 16.4281 21.5001 18.6423 20.1494 20.0381C20.113 20.0757 20.0757 20.113 20.0381 20.1494C18.6423 21.5001 16.4281 21.5 12 21.5C7.57189 21.5 5.35767 21.5001 3.96191 20.1494C3.92429 20.113 3.887 20.0757 3.85059 20.0381C2.4999 18.6423 2.5 16.4281 2.5 12C2.5 7.57189 2.4999 5.35767 3.85059 3.96191C3.887 3.92429 3.92429 3.887 3.96191 3.85059C5.35767 2.4999 7.57189 2.5 12 2.5ZM11.999 5.16016C10.1418 5.16016 9.90916 5.16789 9.17969 5.20117C8.45146 5.23446 7.95358 5.35036 7.51855 5.51953C7.06268 5.69099 6.64954 5.96029 6.30762 6.30859C5.95979 6.6502 5.6904 7.0633 5.51855 7.51953C5.35031 7.95454 5.23348 8.45248 5.2002 9.18066C5.16737 9.90972 5.15918 10.1419 5.15918 12C5.15918 13.8582 5.16691 14.0907 5.2002 14.8203C5.2335 15.5482 5.34947 16.0456 5.51855 16.4805C5.69001 16.9365 5.95923 17.3504 6.30762 17.6924C6.64919 18.0402 7.0624 18.3096 7.51855 18.4814C7.95358 18.6502 8.45146 18.7655 9.17969 18.7988C9.90916 18.8321 10.1418 18.8398 11.999 18.8398C13.8567 18.8398 14.0898 18.8321 14.8193 18.7988C15.5476 18.7655 16.0454 18.6496 16.4805 18.4805C16.9363 18.309 17.3495 18.0397 17.6914 17.6914C18.0392 17.3498 18.3086 16.9367 18.4805 16.4805C18.6491 16.0455 18.7655 15.5483 18.7988 14.8203C18.8321 14.0907 18.8398 13.8577 18.8398 12C18.8398 10.1423 18.8321 9.90928 18.7988 9.17969C18.7655 8.45182 18.6496 7.95442 18.4805 7.51953C18.3087 7.0631 18.0393 6.64931 17.6914 6.30762C17.3498 5.95984 16.9366 5.6904 16.4805 5.51855C16.0455 5.35032 15.5474 5.23448 14.8193 5.20117C14.0902 5.16834 13.8572 5.16016 11.999 5.16016ZM11.999 6.39258C13.8252 6.39258 14.0424 6.39979 14.7637 6.43262C15.4303 6.46317 15.793 6.57358 16.0342 6.66797C16.3531 6.79147 16.5811 6.94001 16.8203 7.17871C17.0597 7.41808 17.2075 7.64669 17.3311 7.96582C17.425 8.207 17.5368 8.56893 17.5674 9.23535C17.6002 9.95674 17.6074 10.1737 17.6074 12C17.6074 13.8263 17.6002 14.0433 17.5674 14.7646C17.5368 15.4311 17.4254 15.793 17.3311 16.0342C17.2216 16.3313 17.0473 16.6006 16.8203 16.8213C16.5998 17.0482 16.3311 17.2226 16.0342 17.332C15.793 17.426 15.4303 17.5368 14.7637 17.5674C14.0423 17.6002 13.8257 17.6074 11.999 17.6074C10.1728 17.6074 9.9566 17.6002 9.23535 17.5674C8.56868 17.5368 8.20607 17.4264 7.96484 17.332C7.66799 17.2226 7.39928 17.0481 7.17871 16.8213C6.95173 16.6006 6.77747 16.3312 6.66797 16.0342C6.57405 15.793 6.46222 15.4311 6.43164 14.7646C6.39881 14.0433 6.3916 13.8263 6.3916 12C6.3916 10.1737 6.39881 9.95674 6.43164 9.23535C6.46222 8.56893 6.5736 8.207 6.66797 7.96582C6.79153 7.64669 6.9398 7.41808 7.17871 7.17871C7.39925 6.95186 7.66798 6.77736 7.96484 6.66797C8.20607 6.57403 8.56868 6.46317 9.23535 6.43262C9.9566 6.39979 10.1733 6.39258 11.999 6.39258ZM12 8.48438C11.0678 8.48445 10.1739 8.85464 9.51465 9.51367C8.85533 10.173 8.48439 11.0676 8.48438 12C8.48438 12.9324 8.85532 13.827 9.51465 14.4863C10.1739 15.1454 11.0678 15.5156 12 15.5156C12.9324 15.5156 13.827 15.1456 14.4863 14.4863C15.1457 13.827 15.5156 12.9324 15.5156 12C15.5156 11.0676 15.1456 10.173 14.4863 9.51367C13.827 8.85444 12.9324 8.48438 12 8.48438ZM12 9.71777C12.6052 9.71777 13.1863 9.95783 13.6143 10.3857C14.0423 10.8137 14.2822 11.3947 14.2822 12C14.2822 12.6053 14.0423 13.1862 13.6143 13.6143C13.1863 14.0422 12.6052 14.2822 12 14.2822C11.7004 14.2822 11.4038 14.2231 11.127 14.1084C10.8502 13.9938 10.5986 13.826 10.3867 13.6143C10.1748 13.4023 10.0063 13.1499 9.8916 12.873C9.77701 12.5963 9.71777 12.2996 9.71777 12C9.71778 11.7004 9.77699 11.4038 9.8916 11.127C10.0063 10.8501 10.1748 10.5977 10.3867 10.3857C10.5986 10.174 10.8502 10.0062 11.127 9.8916C11.4038 9.77695 11.7004 9.71781 12 9.71777ZM15.708 7.58984C15.4876 7.58984 15.276 7.67715 15.1201 7.83301C14.9643 7.98885 14.877 8.20054 14.877 8.4209C14.8771 8.64108 14.9645 8.85208 15.1201 9.00781C15.276 9.16367 15.4876 9.25195 15.708 9.25195C15.9283 9.25189 16.1401 9.16361 16.2959 9.00781C16.4514 8.8521 16.5389 8.64097 16.5391 8.4209C16.5391 8.20065 16.4515 7.98883 16.2959 7.83301C16.1401 7.67721 15.9283 7.58991 15.708 7.58984Z" fill="#D9D9D9"/>
</svg>
