<svg width="24" height="25" viewBox="0 0 24 25" fill="none" xmlns="http://www.w3.org/2000/svg">
<path fill-rule="evenodd" clip-rule="evenodd" d="M6.41394 4.39191C5.83506 3.57154 6.55582 2.52083 7.48797 2.66825L13.2428 3.57839C13.4356 3.60888 13.6535 3.69568 13.8387 3.87746C13.9839 4.0199 14.7354 4.76994 15.4605 5.74609C15.8231 6.23427 16.1945 6.7994 16.4802 7.38989C16.7607 7.96984 16.9922 8.6422 16.9999 9.32751C17.0111 10.3152 16.624 11.4198 16.2762 12.2318C15.9138 13.0779 15.5239 13.7631 15.4111 13.9565C15.2013 14.3162 14.8273 14.4998 14.4629 14.4998H13V16.9998H15.4119C15.7693 16.9998 16.1044 16.8261 16.3105 16.5341L16.712 15.9654C16.9181 15.6734 17.2532 15.4998 17.6106 15.4998L21.7572 15.4998C22.6992 15.4998 23.2739 16.5354 22.7755 17.3347L21.3166 19.6744C20.2209 21.4318 18.2963 22.4998 16.2253 22.4998H7.83093C5.72336 22.4998 3.77032 21.394 2.68598 19.5868L1.32423 17.3172C0.844333 16.5174 1.42046 15.4998 2.35322 15.4998L6.44646 15.4998C6.81425 15.4998 7.15771 15.6836 7.36172 15.9896L7.70861 16.51C7.91263 16.816 8.25608 16.9998 8.62387 16.9998H11V14.4998H7.20402C6.30155 14.4998 5.77761 13.4692 6.32047 12.7404C6.52728 12.4627 6.97742 11.8405 7.41091 11.1258C7.85991 10.3855 8.22747 9.6478 8.34853 9.11662C8.40323 8.87662 8.39162 8.52637 8.27728 8.06327C8.1654 7.61016 7.97218 7.1165 7.737 6.62474C7.26645 5.64081 6.67651 4.76401 6.41394 4.39191ZM9.12238 4.9516C9.26449 5.20812 9.40667 5.48038 9.54129 5.76187C9.81159 6.32708 10.0635 6.95435 10.219 7.58385C10.3719 8.20335 10.4498 8.89738 10.2985 9.56103C10.1011 10.4275 9.58459 11.3986 9.12094 12.163C9.05125 12.2779 8.9813 12.3904 8.91195 12.4998H13.9318C14.077 12.2252 14.2616 11.8555 14.4377 11.4444C14.7694 10.67 15.0062 9.89315 15.0001 9.35015C14.997 9.07877 14.8975 8.71096 14.6798 8.26089C14.4672 7.82136 14.1728 7.36661 13.855 6.93868C13.39 6.3127 12.9076 5.78776 12.6378 5.50757L9.12238 4.9516ZM18.077 17.4998L17.9445 17.6875C17.3636 18.5104 16.4191 18.9998 15.4119 18.9998H8.62387C7.58737 18.9998 6.61946 18.4818 6.04451 17.6194L5.9648 17.4998L3.76617 17.4998L4.40096 18.5578C5.12385 19.7626 6.42588 20.4998 7.83093 20.4998H16.2253C17.606 20.4998 18.889 19.7878 19.6195 18.6162L20.3156 17.4998L18.077 17.4998Z" fill="#919699"/>
</svg>
