<svg width="28" height="28" viewBox="0 0 28 28" fill="none" xmlns="http://www.w3.org/2000/svg">
<path fill-rule="evenodd" clip-rule="evenodd" d="M22.1186 3.38324C21.5185 3.33421 20.7421 3.33317 19.6 3.33317H18C17.2636 3.33317 16.6667 2.73622 16.6667 1.99984C16.6667 1.26346 17.2636 0.666505 18 0.666505L19.6551 0.666504C20.7283 0.666487 21.6142 0.666473 22.3358 0.72543C23.0852 0.786664 23.7742 0.918083 24.4213 1.2478C25.4248 1.75913 26.2407 2.57502 26.752 3.57856C27.0817 4.22567 27.2132 4.91461 27.2744 5.66407C27.3334 6.38566 27.3333 7.27146 27.3333 8.34474V19.6549C27.3333 20.7282 27.3334 21.614 27.2744 22.3356C27.2132 23.0851 27.0817 23.774 26.752 24.4211C26.2407 25.4247 25.4248 26.2405 24.4213 26.7519C23.7742 27.0816 23.0852 27.213 22.3358 27.2742C21.6142 27.3332 20.7284 27.3332 19.6551 27.3332H18C17.2636 27.3332 16.6667 26.7362 16.6667 25.9998C16.6667 25.2635 17.2636 24.6665 18 24.6665H19.6C20.7421 24.6665 21.5185 24.6655 22.1186 24.6164C22.7032 24.5687 23.0021 24.4821 23.2106 24.3759C23.7124 24.1202 24.1203 23.7122 24.376 23.2105C24.4823 23.0019 24.5688 22.703 24.6166 22.1185C24.6656 21.5183 24.6667 20.7419 24.6667 19.5998V8.39984C24.6667 7.25773 24.6656 6.48134 24.6166 5.88122C24.5688 5.29667 24.4823 4.99773 24.376 4.7892C24.1203 4.28743 23.7124 3.87948 23.2106 3.62382C23.0021 3.51757 22.7032 3.431 22.1186 3.38324ZM10.3905 21.6093C9.86982 21.0886 9.86982 20.2444 10.3905 19.7237L14.781 15.3332H1.99999C1.26361 15.3332 0.666656 14.7362 0.666656 13.9998C0.666656 13.2635 1.26361 12.6665 1.99999 12.6665H14.781L10.3905 8.27598C9.86982 7.75528 9.86982 6.91106 10.3905 6.39036C10.9112 5.86966 11.7554 5.86966 12.2761 6.39036L18.9428 13.057C19.4635 13.5777 19.4635 14.4219 18.9428 14.9426L12.2761 21.6093C11.7554 22.13 10.9112 22.13 10.3905 21.6093Z" fill="#095880"/>
</svg>
