<svg width="196" height="50" viewBox="0 0 196 50" fill="none" xmlns="http://www.w3.org/2000/svg">
<g clip-path="url(#clip0_3382_7052)">
<path d="M113.641 49.9522H114.227L114.276 0H113.592L113.641 49.9522Z" fill="#095880"/>
<path d="M11.4667 16.2715C11.4081 16.3384 9.4432 19.3403 7.08729 22.9446C4.73137 26.5488 2.35591 30.1816 1.80848 31.0229C1.26105 31.8642 0.645189 32.8012 0.449678 33.0975L0.0879822 33.652H7.59561L7.98664 33.0019C10.9682 28.0115 12.0337 26.2237 13.3339 24.0344C14.1746 22.6004 14.9273 21.3576 14.9957 21.2715C15.1032 21.1281 15.3281 21.4627 16.7455 23.8432C17.6449 25.3442 18.3781 26.5966 18.3781 26.6252C18.3781 26.6539 17.2636 26.673 15.9048 26.673H13.4316L12.3856 28.4417C11.8089 29.4073 11.3397 30.2294 11.3397 30.2581C11.3397 30.2868 13.4218 30.3059 15.9733 30.3059H20.6069L22.6011 33.652H26.4136C28.5055 33.652 30.2065 33.6138 30.1869 33.5755C30.1772 33.5277 27.5964 29.5889 24.4585 24.8279L18.7593 16.1568H15.1521C12.3954 16.1568 11.5352 16.1855 11.4667 16.2715Z" fill="#095880"/>
<path d="M32.3571 33.652H39.6888V20.0765H41.9176C44.4104 20.0765 45.5443 20.1721 46.385 20.4589C47.5874 20.8604 48.174 21.4818 48.262 22.4474C48.389 23.7572 47.6168 24.5985 45.9256 25.0096C45.5346 25.0956 44.6059 25.1721 43.3839 25.2103L41.4484 25.2677V29.1587H42.8463C46.8249 29.1491 49.4155 28.7667 51.5465 27.8681C52.7294 27.3709 53.3452 26.979 54.1664 26.195C55.2906 25.1243 55.7207 24.13 55.7207 22.6482C55.7207 19.9618 53.6972 17.9446 49.9531 16.8929C47.7145 16.262 46.1504 16.1568 38.6428 16.1568H32.3571V33.652Z" fill="#095880"/>
<path d="M59.2888 16.2715C59.2595 16.3384 59.2497 20.2868 59.2595 25.0478L59.2888 33.6998L78.9083 33.7476L79.8468 32.8681C80.3747 32.3805 81.2838 31.5296 81.8801 30.9656L82.9652 29.9426L80.1987 29.8757C78.6639 29.8375 74.9786 29.8375 71.997 29.8757L66.5716 29.9522V26.673H78.1067V22.9446H66.5716V20.0765L73.1017 20.0574L79.622 20.0287V16.2046L69.4749 16.1759C61.4101 16.1568 59.3181 16.1759 59.2888 16.2715Z" fill="#095880"/>
<path d="M81.8215 16.2428C81.8215 16.2906 83.8157 18.2314 86.2498 20.5641C88.6741 22.8968 90.6684 24.8279 90.6684 24.8662C90.6684 24.9044 88.9087 26.5774 86.7581 28.5851C84.6075 30.5927 82.496 32.5813 82.0658 32.9924L81.2838 33.7476L85.4873 33.7381H89.6908L92.1347 31.2142C93.7868 29.5124 95.517 27.8585 97.4624 26.1281C100.532 23.4034 108.118 16.3576 108.118 16.2333C108.118 16.195 106.368 16.1568 104.227 16.1568H100.346L95.1651 21.2237L92.5746 18.6903L89.9743 16.1568H85.8979C83.5517 16.1568 81.8215 16.195 81.8215 16.2428Z" fill="#095880"/>
<path d="M136.975 16.2906C136.076 16.5774 135.587 17.1797 135.587 17.9828C135.587 18.8528 136.027 19.2925 137.826 20.2199C139.038 20.8413 139.4 21.1855 139.4 21.74C139.4 22.5908 138.442 23.1549 137.278 22.9828C136.701 22.8967 136.213 22.4857 135.91 21.8164C135.607 21.1281 135.45 21.2046 135.411 22.065C135.382 22.6577 135.411 22.7629 135.607 22.935C135.939 23.2409 136.701 23.4226 137.65 23.4226C139.331 23.4226 140.279 22.7533 140.279 21.5583C140.279 20.7266 139.82 20.239 138.393 19.5411C137.151 18.9293 136.672 18.5851 136.496 18.1931C136.32 17.7629 136.398 17.3996 136.77 17.0554C137.053 16.7973 137.112 16.7782 137.884 16.7782C138.823 16.7782 138.96 16.8547 139.4 17.6577C139.536 17.9063 139.693 18.0975 139.742 18.088C139.8 18.0784 139.839 17.7629 139.839 17.3709V16.6826L139.39 16.4627C138.823 16.1855 137.581 16.0994 136.975 16.2906Z" fill="#095880"/>
<path d="M163.692 19.4264C162.949 21.2428 162.265 22.782 162.157 22.8681C162.049 22.9637 161.854 23.0402 161.727 23.0402C161.58 23.0402 161.492 23.0975 161.492 23.1836C161.492 23.2983 161.678 23.327 162.577 23.327C163.399 23.327 163.653 23.2983 163.623 23.2027C163.594 23.1453 163.477 23.0688 163.34 23.0593C163.213 23.0402 163.066 22.9828 163.017 22.9446C162.968 22.8968 163.066 22.4761 163.252 21.9503L163.574 21.0325H166.536L166.859 21.8929C167.201 22.8107 167.191 22.9924 166.752 23.0593C166.634 23.0784 166.527 23.1453 166.497 23.2122C166.468 23.3078 166.722 23.327 167.69 23.3078C168.404 23.2887 168.932 23.2409 168.951 23.1836C168.961 23.1262 168.853 23.0784 168.716 23.0593C168.57 23.0402 168.384 22.9541 168.296 22.8585C168.208 22.7629 167.534 21.2237 166.791 19.4455C165.676 16.74 165.422 16.2046 165.246 16.1759C165.06 16.1472 164.904 16.4914 163.692 19.4264ZM165.627 18.7859C165.921 19.522 166.185 20.2199 166.224 20.3346L166.292 20.5545H165.06C164.376 20.5545 163.838 20.5163 163.858 20.4685C163.878 20.4302 164.151 19.7132 164.464 18.891C164.787 18.0688 165.06 17.4092 165.07 17.4283C165.09 17.4379 165.334 18.0497 165.627 18.7859Z" fill="#095880"/>
<path d="M184.123 16.2811C183.038 16.5583 182.236 17.2275 181.747 18.2409C181.513 18.7189 181.483 18.9006 181.483 19.7897C181.483 20.6883 181.513 20.8509 181.757 21.3767C182.099 22.0841 182.862 22.8489 183.536 23.1549C184.181 23.4417 185.657 23.4608 186.322 23.2027C186.791 23.0115 187.398 22.5143 187.398 22.304C187.398 22.1128 187.251 22.1511 186.586 22.4857C186.049 22.7629 185.892 22.8011 185.198 22.8011C184.524 22.8011 184.357 22.7629 183.966 22.543C183.438 22.2371 183.087 21.8164 182.725 21.0516C182.49 20.5736 182.461 20.392 182.461 19.5507C182.461 18.413 182.686 17.8011 183.311 17.2467C183.839 16.7782 184.26 16.6252 185.012 16.6252C185.902 16.6157 186.43 16.9216 186.791 17.6673C187.173 18.4417 187.339 18.3939 187.378 17.5143C187.398 17.0937 187.358 16.7591 187.3 16.6826C186.967 16.2906 185.051 16.0516 184.123 16.2811Z" fill="#095880"/>
<path d="M120.063 16.3671C120.093 16.434 120.249 16.5105 120.425 16.5488C120.601 16.587 120.787 16.6539 120.836 16.7017C120.885 16.7495 120.914 18.0688 120.904 19.847L120.875 22.8968L120.552 23.0306C119.985 23.2792 120.239 23.3748 121.549 23.4034C122.488 23.4226 122.791 23.4034 122.762 23.3174C122.742 23.2505 122.546 23.1549 122.331 23.088L121.95 22.9828L121.921 19.8566L121.901 16.7304L122.243 16.5966C122.879 16.3384 122.654 16.2524 121.305 16.2524C120.337 16.2524 120.034 16.2811 120.063 16.3671Z" fill="#095880"/>
<path d="M125.538 16.3671C125.567 16.434 125.665 16.5105 125.772 16.5296C126.203 16.6061 126.203 16.6061 126.203 19.7897C126.203 23.0593 126.212 22.9924 125.675 23.0593C125.518 23.0688 125.372 23.1453 125.342 23.2027C125.313 23.2983 125.567 23.327 126.398 23.327C127.229 23.327 127.483 23.2983 127.454 23.2027C127.424 23.1453 127.317 23.0784 127.2 23.0593C126.799 23.0019 126.789 22.8872 126.809 20.2677L126.838 17.7629L128.881 20.3346C131.286 23.3461 131.354 23.4226 131.648 23.4226H131.872L131.892 20.0956L131.921 16.7782L132.234 16.6348C132.84 16.3576 132.635 16.2524 131.53 16.2524C130.748 16.2524 130.504 16.2811 130.504 16.3767C130.504 16.4532 130.67 16.5488 130.875 16.5966L131.237 16.6826L131.266 19.2447C131.276 20.8413 131.256 21.7878 131.198 21.7591C131.149 21.7208 130.191 20.5449 129.086 19.1396C127.972 17.7342 126.975 16.5105 126.867 16.4149C126.623 16.2141 125.479 16.1759 125.538 16.3671Z" fill="#095880"/>
<path d="M143.114 16.3767C143.114 16.4532 143.28 16.5488 143.486 16.5966L143.847 16.6826L143.906 19.0727C143.965 21.7495 143.984 21.8642 144.669 22.5908C145.236 23.1931 145.9 23.4608 146.839 23.4608C147.474 23.4704 147.66 23.4226 148.158 23.1836C148.784 22.8681 149.283 22.2753 149.468 21.6252C149.517 21.434 149.566 20.2772 149.566 19.0631C149.566 16.673 149.566 16.6826 150.094 16.6157C150.25 16.6061 150.397 16.5296 150.426 16.4627C150.456 16.3767 150.202 16.348 149.38 16.348C148.295 16.348 147.982 16.4532 148.618 16.6157L148.931 16.6922L148.96 19.0535C148.98 21.2524 148.97 21.4436 148.784 21.7878C148.413 22.5048 147.787 22.7916 146.731 22.7342C146.213 22.7055 145.988 22.6482 145.695 22.4379C144.952 21.9407 144.923 21.8547 144.893 19.2352C144.864 16.7878 144.874 16.673 145.294 16.6157C145.411 16.5966 145.519 16.5105 145.539 16.4149C145.568 16.2715 145.46 16.2524 144.346 16.2524C143.388 16.2524 143.114 16.2811 143.114 16.3767Z" fill="#095880"/>
<path d="M171.512 16.348C171.483 16.4054 171.532 16.4723 171.63 16.501C172.118 16.6444 172.099 16.501 172.128 19.7419C172.148 21.9025 172.118 22.8203 172.04 22.9063C171.981 22.9828 171.806 23.0402 171.649 23.0402C171.463 23.0402 171.366 23.088 171.366 23.1836C171.366 23.2983 171.542 23.327 172.402 23.327C173.184 23.327 173.428 23.2983 173.399 23.2027C173.37 23.1453 173.262 23.0784 173.145 23.0593C172.744 23.0019 172.734 22.8872 172.754 20.2581L172.783 17.7342L175.031 20.5545C176.889 22.8776 177.338 23.3843 177.554 23.4034L177.817 23.4321V20.2199C177.817 18.3078 177.857 16.9312 177.915 16.826C177.964 16.7304 178.15 16.6061 178.316 16.5488C178.844 16.3671 178.531 16.262 177.475 16.262C176.684 16.262 176.449 16.2906 176.449 16.3862C176.449 16.4532 176.586 16.5392 176.762 16.5774C177.339 16.6922 177.329 16.6252 177.329 19.3212C177.329 20.7744 177.29 21.7973 177.241 21.7973C177.192 21.7973 176.175 20.5736 174.992 19.0822C173.81 17.5908 172.764 16.3384 172.676 16.3098C172.431 16.2142 171.581 16.2428 171.512 16.348Z" fill="#095880"/>
<path d="M190.232 16.348C190.232 16.3958 190.35 16.4627 190.506 16.4914C191.093 16.6157 191.063 16.4436 191.093 19.7419C191.102 21.5105 191.073 22.8298 191.024 22.8776C190.975 22.9254 190.79 22.9924 190.614 23.0306C190.438 23.0688 190.281 23.1453 190.252 23.2122C190.193 23.3843 195.541 23.3748 195.687 23.2027C195.765 23.1071 196 22.0268 196 21.7686C196 21.7304 195.922 21.7017 195.824 21.7017C195.707 21.7017 195.58 21.8356 195.482 22.0746C195.208 22.6769 194.729 22.8489 193.351 22.8489C192.608 22.8489 192.188 22.8107 192.109 22.7342C192.031 22.6577 191.992 22.1989 191.992 21.3002V19.9713L194.289 20.0287L194.397 20.3633C194.622 21.0229 194.729 20.8126 194.729 19.7419C194.729 18.9771 194.7 18.7285 194.612 18.7572C194.543 18.7859 194.446 18.9388 194.397 19.1013C194.289 19.4646 194.064 19.522 192.872 19.4837L192.041 19.4551L192.012 18.2505C191.982 16.6539 191.933 16.7017 193.497 16.7495C194.817 16.7878 194.993 16.8547 195.286 17.3901C195.57 17.9063 195.765 17.8489 195.726 17.2562C195.707 16.9885 195.638 16.673 195.57 16.5392L195.462 16.3002L192.843 16.2715C191.151 16.2619 190.232 16.2811 190.232 16.348Z" fill="#095880"/>
<path d="M153.105 16.4627C153.134 16.5296 153.281 16.6061 153.447 16.6444C153.603 16.673 153.789 16.7304 153.848 16.7686C153.936 16.8164 153.965 17.6673 153.965 19.8757C153.965 23.1931 153.985 23.0784 153.388 23.1931C153.222 23.2314 153.095 23.3078 153.115 23.3652C153.134 23.4321 153.613 23.4799 154.483 23.499C155.627 23.5182 155.822 23.499 155.822 23.3748C155.822 23.2887 155.734 23.2314 155.588 23.2314C155.451 23.2314 155.236 23.1931 155.099 23.1358L154.845 23.0402V20.0765H155.334C155.666 20.0765 155.871 20.1243 155.998 20.2486C156.086 20.3346 156.536 21.0134 156.986 21.7495C157.435 22.4857 157.875 23.1644 157.954 23.2505C158.071 23.3843 158.257 23.4226 158.872 23.4226C159.439 23.4226 159.645 23.3939 159.615 23.3078C159.586 23.2409 159.439 23.1549 159.283 23.1166C158.902 23.021 158.843 22.9637 157.797 21.3384C157.064 20.2199 156.947 19.9809 157.103 19.9809C157.416 19.9809 158.012 19.6367 158.345 19.2734C159.088 18.4417 158.814 17.065 157.807 16.5774C157.484 16.4149 157.162 16.3958 155.246 16.3671C153.506 16.348 153.076 16.3671 153.105 16.4627ZM157.093 16.9694C157.523 17.1893 157.797 17.6291 157.797 18.1071C157.797 19.0727 157.191 19.4933 155.705 19.5794L154.845 19.6272V18.2887C154.845 17.5526 154.874 16.9216 154.913 16.8929C155.04 16.7591 156.8 16.826 157.093 16.9694Z" fill="#095880"/>
<path d="M98.2737 27.6482L96.2013 29.4742L97.3646 30.6788C98 31.3384 98.958 32.304 99.4859 32.8203L100.454 33.7476L104.628 33.7285L108.812 33.6998L104.608 29.7514C102.301 27.5908 100.395 25.8126 100.375 25.8126C100.356 25.8126 99.4175 26.6444 98.2737 27.6482Z" fill="#095880"/>
<path d="M122.82 26.4914C122.038 26.587 121.364 26.9025 120.826 27.4379C119.076 29.1396 119.575 32.3136 121.755 33.3652C122.185 33.5755 122.37 33.6042 123.319 33.6042C124.257 33.6042 124.453 33.5755 124.834 33.3748C125.548 33.0115 125.89 32.6195 125.636 32.4665C125.596 32.4474 125.254 32.5717 124.893 32.7533C124.326 33.0306 124.12 33.0784 123.553 33.0784C122.37 33.0784 121.676 32.6004 121.08 31.3576C120.806 30.8031 120.777 30.6405 120.777 29.8279C120.777 28.8432 120.924 28.3461 121.383 27.7533C121.901 27.0937 122.957 26.7304 123.895 26.9025C124.355 26.9885 124.912 27.4761 125.147 27.9828C125.362 28.4608 125.479 28.5468 125.665 28.3939C125.763 28.3078 125.811 28.0784 125.811 27.6673C125.811 27.0841 125.802 27.0459 125.499 26.8642C124.941 26.5296 123.788 26.3671 122.82 26.4914Z" fill="#095880"/>
<path d="M161.512 26.4627C161.463 26.501 160.808 27.9924 160.075 29.7801C159.332 31.5679 158.687 33.088 158.638 33.1453C158.579 33.2122 158.393 33.2887 158.208 33.327C158.022 33.3556 157.875 33.4417 157.875 33.5182C157.875 33.6233 158.1 33.652 158.951 33.652C159.84 33.652 160.026 33.6233 160.026 33.5086C160.026 33.4226 159.938 33.3652 159.791 33.3652C159.332 33.3652 159.312 33.174 159.664 32.2084L159.997 31.3098H162.9L163.232 32.1415C163.418 32.5908 163.545 33.0306 163.516 33.1071C163.487 33.1836 163.33 33.2792 163.164 33.3174C162.998 33.3556 162.861 33.4417 162.861 33.5182C162.861 33.6233 163.096 33.652 164.073 33.652C164.787 33.652 165.315 33.6138 165.354 33.5564C165.383 33.499 165.334 33.4321 165.236 33.4034C164.64 33.2314 164.63 33.2218 163.223 29.8088C162.47 27.9828 161.805 26.4723 161.737 26.4436C161.678 26.4245 161.571 26.434 161.512 26.4627ZM162.167 29.3308C162.441 30.0382 162.665 30.6692 162.665 30.7457C162.665 30.8509 162.441 30.8795 161.492 30.8795C160.769 30.8795 160.319 30.8413 160.319 30.7839C160.319 30.7075 161.023 28.8528 161.414 27.9159C161.512 27.6864 161.512 27.6864 161.59 27.8681C161.629 27.9732 161.893 28.6329 162.167 29.3308Z" fill="#095880"/>
<path d="M131.423 26.5679C129.663 27.0077 128.529 28.8432 128.832 30.7457C129.135 32.6673 130.67 33.8528 132.664 33.7189C134.052 33.6329 135.03 32.9828 135.616 31.7591C135.91 31.1568 135.929 31.0516 135.929 30.0669C135.929 29.13 135.9 28.9579 135.665 28.4704C135.323 27.7533 134.707 27.1128 134.043 26.7973C133.593 26.5774 133.348 26.5296 132.615 26.5105C132.127 26.501 131.589 26.5201 131.423 26.5679ZM133.319 27.1128C134.355 27.5335 135.001 28.8241 135.001 30.4876C135.001 31.4532 134.776 32.065 134.238 32.5908C133.691 33.1262 133.133 33.3078 132.273 33.2505C131.11 33.174 130.298 32.3614 129.976 30.9656C129.409 28.5755 130.377 26.979 132.39 26.9598C132.703 26.9598 133.114 27.0268 133.319 27.1128Z" fill="#095880"/>
<path d="M139.155 26.587C139.067 26.7113 139.087 26.7208 139.448 26.8356L139.742 26.9312L139.703 29.9809C139.693 31.673 139.634 33.0784 139.585 33.1358C139.527 33.2027 139.331 33.2792 139.145 33.3174C138.94 33.3461 138.813 33.4226 138.842 33.4895C138.891 33.652 140.885 33.652 140.934 33.4895C140.964 33.4226 140.837 33.3365 140.651 33.2887L140.328 33.2122L140.299 30.956C140.289 29.7228 140.309 28.6138 140.358 28.499C140.416 28.3365 140.69 28.7859 141.843 30.9751C142.625 32.4474 143.29 33.652 143.329 33.652C143.378 33.652 144.053 32.3901 144.845 30.8509L146.291 28.0593L146.34 30.4971C146.369 31.8356 146.36 33.0019 146.321 33.088C146.282 33.174 146.106 33.2983 145.93 33.3556C145.353 33.5564 145.754 33.6616 146.985 33.6329C148.178 33.6042 148.422 33.5086 147.738 33.3174L147.367 33.2122L147.308 32.4092C147.269 31.9598 147.23 30.5641 147.21 29.3021L147.171 27.0077L147.543 26.8356C148.002 26.6061 147.924 26.4818 147.318 26.4818C146.448 26.4818 146.506 26.4054 144.972 29.4359C144.199 30.9656 143.535 32.218 143.505 32.218C143.476 32.218 142.811 30.956 142.019 29.4073C140.651 26.7304 140.573 26.6061 140.27 26.5392C139.8 26.4532 139.224 26.4723 139.155 26.587Z" fill="#095880"/>
<path d="M150.837 26.6157C150.837 26.6922 150.984 26.7782 151.179 26.8069C151.365 26.8451 151.56 26.9503 151.619 27.0555C151.678 27.1606 151.717 28.3556 151.717 30.1052C151.717 32.8585 151.707 32.9924 151.521 33.174C151.414 33.2792 151.218 33.3652 151.081 33.3652C150.925 33.3652 150.837 33.4226 150.837 33.5086C150.837 33.6329 151.052 33.652 152.215 33.652C153.271 33.652 153.584 33.6233 153.555 33.5277C153.525 33.4704 153.32 33.3843 153.095 33.3556C152.86 33.327 152.636 33.2409 152.587 33.1644C152.538 33.088 152.499 32.4857 152.499 31.826V30.6214L153.555 30.5736C154.229 30.5449 154.737 30.4685 154.992 30.3633C156.057 29.9235 156.575 28.805 156.165 27.8394C155.715 26.7878 154.825 26.4914 152.186 26.4818C151.101 26.4818 150.837 26.5105 150.837 26.6157ZM154.493 27.1893C155.021 27.3996 155.285 27.8585 155.285 28.5564C155.285 29.5794 154.767 30.0096 153.427 30.0956L152.597 30.1434V28.6616C152.597 27.849 152.626 27.1511 152.665 27.1224C152.782 26.9981 154.161 27.0555 154.493 27.1893Z" fill="#095880"/>
<path d="M177.28 26.587C177.192 26.7113 177.202 26.7113 177.661 26.826C178.033 26.912 178.111 26.9981 179.294 28.7763L180.545 30.6405V31.912L180.555 33.1836L180.203 33.327C179.968 33.4226 179.88 33.5086 179.939 33.566C180.056 33.6807 182.304 33.6329 182.344 33.5182C182.353 33.4704 182.187 33.3843 181.972 33.327L181.581 33.2122L181.552 31.9025C181.532 31.0516 181.562 30.5163 181.64 30.3728C181.904 29.8757 183.693 27.1797 183.849 27.0363C183.947 26.9503 184.133 26.8642 184.269 26.8451C184.406 26.826 184.514 26.7495 184.514 26.673C184.514 26.5583 184.328 26.5201 183.517 26.501C182.666 26.4818 182.51 26.501 182.51 26.6252C182.51 26.7017 182.588 26.7686 182.695 26.7686C182.793 26.7686 182.93 26.826 182.989 26.9025C183.077 27.0076 182.901 27.3614 182.168 28.5755C181.65 29.4264 181.19 30.0956 181.141 30.0669C181.004 29.9809 179.284 27.1797 179.284 27.0268C179.284 26.9503 179.421 26.8356 179.587 26.7782C179.753 26.7208 179.861 26.6348 179.821 26.5774C179.733 26.4436 177.358 26.4532 177.28 26.587Z" fill="#095880"/>
<path d="M167.964 26.6922C167.993 26.7591 168.091 26.8356 168.198 26.8451C168.609 26.9216 168.628 27.0459 168.628 30.1243C168.628 33.0593 168.628 33.0688 168.413 33.2122C168.296 33.2983 168.091 33.3652 167.973 33.3652C167.837 33.3652 167.749 33.4226 167.749 33.5086C167.749 33.6329 167.905 33.652 168.804 33.6329C169.831 33.6042 170.124 33.499 169.567 33.3556C169.411 33.3078 169.244 33.2218 169.205 33.1549C169.098 33.0019 169.088 28.1071 169.195 28.1071C169.235 28.1071 170.251 29.3595 171.463 30.8795C173.555 33.5182 173.907 33.8815 174.191 33.6998C174.269 33.6616 174.298 32.5621 174.298 30.3633C174.298 26.9216 174.298 26.9312 174.728 26.8547C174.836 26.8356 174.934 26.7591 174.963 26.6922C174.992 26.6061 174.738 26.5774 173.907 26.5774C173.086 26.5774 172.822 26.6061 172.852 26.6922C172.881 26.7591 173.027 26.8356 173.194 26.8738C173.35 26.9025 173.536 26.9598 173.594 26.9981C173.731 27.0746 173.77 32.1224 173.643 32.1224C173.594 32.1224 172.646 30.956 171.512 29.5315C170.388 28.1071 169.381 26.8642 169.283 26.7591C169.147 26.6157 168.98 26.5774 168.521 26.5774C168.091 26.5774 167.934 26.6061 167.964 26.6922Z" fill="#095880"/>
</g>
<defs>
<clipPath id="clip0_3382_7052">
<rect width="196" height="50" fill="white"/>
</clipPath>
</defs>
</svg>
