<svg width="32" height="32" viewBox="0 0 32 32" fill="none" xmlns="http://www.w3.org/2000/svg">
<path d="M15.616 4.60013C15.7321 4.44538 15.8008 4.26029 15.8138 4.06727C15.8268 3.87426 15.7836 3.68161 15.6893 3.51269C15.595 3.34376 15.4538 3.2058 15.2827 3.11553C15.1116 3.02527 14.918 2.98657 14.7253 3.00413C7.50663 3.66279 3.4773 9.34013 3.03997 15.1441C2.60263 20.9588 5.75596 27.1108 12.9746 28.6988C20.556 30.3655 28.2706 24.9161 28.996 17.1708C29.014 16.979 28.9763 16.7861 28.8874 16.6153C28.7984 16.4445 28.6621 16.3029 28.4946 16.2077C28.3272 16.1125 28.1358 16.0677 27.9435 16.0787C27.7512 16.0896 27.5662 16.1559 27.4106 16.2695C23.628 19.0281 19.304 18.0241 16.5626 15.3041C13.824 12.5855 12.8293 8.3188 15.616 4.60013Z" fill="#095880"/>
</svg>
