<svg width="25" height="25" viewBox="0 0 25 25" fill="none" xmlns="http://www.w3.org/2000/svg">
<path fill-rule="evenodd" clip-rule="evenodd" d="M17.75 10.8125C17.75 14.9201 14.4201 18.25 10.3125 18.25C6.20488 18.25 2.875 14.9201 2.875 10.8125C2.875 6.70488 6.20488 3.375 10.3125 3.375C14.4201 3.375 17.75 6.70488 17.75 10.8125ZM16.4393 18.7954C14.7425 20.0996 12.618 20.875 10.3125 20.875C4.75513 20.875 0.25 16.3699 0.25 10.8125C0.25 5.25513 4.75513 0.75 10.3125 0.75C15.8699 0.75 20.375 5.25513 20.375 10.8125C20.375 13.118 19.5996 15.2425 18.2954 16.9393L23.9281 22.5719C24.4406 23.0845 24.4406 23.9155 23.9281 24.4281C23.4155 24.9406 22.5845 24.9406 22.0719 24.4281L16.4393 18.7954Z" fill="#919699"/>
</svg>
