<svg width="20" height="20" viewBox="0 0 20 20" fill="none" xmlns="http://www.w3.org/2000/svg">
<g clip-path="url(#clip0_3382_7128)">
<path fill-rule="evenodd" clip-rule="evenodd" d="M4.97943 1.41784C4.98819 1.42269 4.99694 1.42754 5.00569 1.43239L18.1257 8.70156C18.2759 8.78477 18.4345 8.87256 18.5598 8.95783C18.6866 9.04406 18.9026 9.20619 19.0286 9.4837C19.1775 9.81191 19.1775 10.1884 19.0286 10.5166C18.9026 10.7942 18.6865 10.9563 18.5598 11.0425C18.4345 11.1278 18.276 11.2156 18.1257 11.2988L4.97942 18.5825C4.80068 18.6816 4.62046 18.7815 4.46619 18.8496C4.32149 18.9135 4.03657 19.0284 3.70289 18.9684C3.32231 18.8999 2.99485 18.6592 2.81598 18.3163C2.65915 18.0157 2.6838 17.7095 2.70164 17.5524C2.72065 17.3848 2.76224 17.183 2.80349 16.9828L3.503 13.5852C3.5112 13.5454 3.51926 13.5061 3.52722 13.4673C3.67503 12.747 3.78651 12.2037 4.05388 11.7378C4.28917 11.3278 4.60898 10.9725 4.9921 10.6955C5.42109 10.3854 5.94063 10.2179 6.62633 10.0002C5.94063 9.78244 5.42109 9.61497 4.9921 9.30483C4.60898 9.02786 4.28917 8.67256 4.05388 8.26253C3.78651 7.7966 3.67503 7.25334 3.52722 6.53304C3.51926 6.49427 3.5112 6.45497 3.503 6.41515L2.80955 3.04694C2.80753 3.03715 2.80551 3.02734 2.80349 3.01754C2.76224 2.81738 2.72065 2.61557 2.70164 2.44798C2.6838 2.29082 2.65915 1.9846 2.81598 1.68401C2.99485 1.34118 3.32231 1.10044 3.70289 1.03198C4.03657 0.97195 4.3215 1.08683 4.46619 1.15073C4.62047 1.21887 4.80068 1.31876 4.97943 1.41784ZM4.51508 3.06595L5.13543 6.07906C5.31893 6.97034 5.38228 7.22882 5.49945 7.43301C5.6171 7.63803 5.777 7.81568 5.96856 7.95417C6.15935 8.0921 6.40977 8.18219 7.2769 8.45809L9.62766 9.20607C9.97348 9.3161 10.2083 9.63727 10.2083 10.0002C10.2083 10.3631 9.97348 10.6842 9.62766 10.7943L7.2769 11.5422C6.40977 11.8182 6.15935 11.9082 5.96856 12.0462C5.777 12.1847 5.6171 12.3623 5.49945 12.5673C5.38228 12.7715 5.31893 13.03 5.13543 13.9213L4.51508 16.9344L17.0305 10.0002L4.51508 3.06595Z" fill="#2C3438"/>
</g>
<defs>
<clipPath id="clip0_3382_7128">
<rect width="20" height="20" fill="white"/>
</clipPath>
</defs>
</svg>
