<svg width="21" height="26" viewBox="0 0 21 26" fill="none" xmlns="http://www.w3.org/2000/svg">
<path d="M4.66667 6C4.66667 5.35567 5.189 4.83333 5.83333 4.83333H10.5C11.1443 4.83333 11.6667 5.35567 11.6667 6C11.6667 6.64433 11.1443 7.16667 10.5 7.16667H5.83333C5.189 7.16667 4.66667 6.64433 4.66667 6Z" fill="#919699"/>
<path fill-rule="evenodd" clip-rule="evenodd" d="M0 5.41667C0 2.83934 2.08934 0.75 4.66667 0.75H16.3333C18.9107 0.75 21 2.83934 21 5.41667V20.5833C21 23.1607 18.9107 25.25 16.3333 25.25H4.66667C2.08934 25.25 0 23.1607 0 20.5833V5.41667ZM4.66667 3.08333C3.378 3.08333 2.33333 4.128 2.33333 5.41667V8.91667H18.6667V5.41667C18.6667 4.128 17.622 3.08333 16.3333 3.08333H4.66667ZM18.6667 11.25H2.33333V20.5833C2.33333 21.872 3.378 22.9167 4.66667 22.9167H16.3333C17.622 22.9167 18.6667 21.872 18.6667 20.5833V11.25Z" fill="#919699"/>
</svg>
