<svg width="24" height="24" viewBox="0 0 24 24" fill="none" xmlns="http://www.w3.org/2000/svg">
<path fill-rule="evenodd" clip-rule="evenodd" d="M11.8631 0L9.00368 2.85187L7.55021 3.43478L3.43796 3.47244L3.43626 7.53775L2.85778 9.01862L0 11.869L2.88081 14.7527L3.4342 16.5177V20.6481H7.50617L9.01619 21.1158L11.8972 24L14.7345 21.1601L16.4787 20.6481H20.6933L20.6651 16.4395L21.1627 14.7499L24 11.9094L21.1238 9.03028L20.6892 7.63166L20.6609 3.43176H16.4903L14.7371 2.8772L11.8631 0ZM11.8596 1.52596L10.0694 3.31148L11.8974 5.14146L13.6844 3.35267L11.8596 1.52596ZM5.14208 11.9094L3.35523 13.6983L1.52712 11.8684L3.31732 10.0827L5.14208 11.9094ZM4.36976 15.8962L3.96786 14.6143L5.98956 12.5906L7.17217 13.6737L7.17825 15.8713L4.36976 15.8962ZM8.12215 16.8562V19.7102L9.15517 20.0301L11.1653 18.0254L10.0194 16.9092L8.12215 16.8562ZM12.6019 18.0691L14.6047 20.0741L15.8684 19.7031L15.8698 16.8572H14.1969L12.6019 18.0691ZM16.8385 15.8204H19.7239L20.0776 14.6192L18.0258 12.5653L16.8381 13.754L16.8385 15.8204ZM18.0435 11.1577L20.0375 9.16874L19.7549 8.25944H16.9005L16.9047 9.86527L18.0435 11.1577ZM15.8685 7.19547L15.8699 4.36911L14.5984 3.96693L12.6079 5.95949L13.9786 7.19962L15.8685 7.19547ZM11.2024 5.97476L9.175 3.94544L8.19587 4.33815L8.19066 7.23926L9.94068 7.22391L11.2024 5.97476ZM7.20704 8.21748L4.34122 8.18503L3.94999 9.18682L5.96164 11.2004L7.18613 9.85251L7.20704 8.21748ZM20.6855 13.6983L22.4723 11.9094L20.6476 10.0827L18.8574 11.8684L20.6855 13.6983ZM19.5919 16.9021H16.9461L16.9448 19.5664H19.6097L19.5919 16.9021ZM4.51276 7.10149L7.11463 7.09189L7.11932 4.51632L4.51389 4.5401L4.51276 7.10149ZM16.9462 4.51337L16.9448 7.17778H19.6098L19.592 4.51337H16.9462ZM10.0694 20.6408L11.8596 18.8554L13.6844 20.6821L11.8974 22.4709L10.0694 20.6408ZM7.04164 16.9828L4.51472 16.9781V19.5664H7.04164V16.9828ZM8.25701 10.2782L8.2822 8.31595L10.3929 8.29724L11.9183 6.78709L13.5659 8.27773L15.8242 8.27282L15.8294 10.2738L17.2157 11.847L15.7617 13.3022L15.7623 15.7755H13.8417L11.9086 17.2444L10.4703 15.8436L8.25433 15.7817L8.24712 13.1991L6.80437 11.8776L8.25701 10.2782Z" fill="#D7B56D"/>
</svg>
