<svg width="29" height="28" viewBox="0 0 29 28" fill="none" xmlns="http://www.w3.org/2000/svg">
<g clip-path="url(#clip0_3382_3537)">
<path fill-rule="evenodd" clip-rule="evenodd" d="M14.5 0.583496C11.4394 0.583496 8.95833 3.06458 8.95833 6.12516C8.95833 9.18574 11.4394 11.6668 14.5 11.6668C17.5606 11.6668 20.0417 9.18574 20.0417 6.12516C20.0417 3.06458 17.5606 0.583496 14.5 0.583496ZM11.2917 6.12516C11.2917 4.35325 12.7281 2.91683 14.5 2.91683C16.2719 2.91683 17.7083 4.35325 17.7083 6.12516C17.7083 7.89708 16.2719 9.3335 14.5 9.3335C12.7281 9.3335 11.2917 7.89708 11.2917 6.12516Z" fill="#919699"/>
<path fill-rule="evenodd" clip-rule="evenodd" d="M14.5 14.0002C5.32415 14.0002 2.25 18.9905 2.25 21.5835C2.25 22.7236 2.63513 23.7644 3.39379 24.523C4.15245 25.2817 5.19321 25.6668 6.33333 25.6668H22.6667C23.8068 25.6668 24.8475 25.2817 25.6062 24.523C26.3649 23.7644 26.75 22.7236 26.75 21.5835C26.75 18.9905 23.6759 14.0002 14.5 14.0002ZM4.58333 21.5835C4.58333 20.6765 6.17585 16.3335 14.5 16.3335C22.8241 16.3335 24.4167 20.6765 24.4167 21.5835C24.4167 22.1934 24.2185 22.6109 23.9563 22.8731C23.6941 23.1353 23.2765 23.3335 22.6667 23.3335H6.33333C5.72346 23.3335 5.30588 23.1353 5.04371 22.8731C4.78153 22.6109 4.58333 22.1934 4.58333 21.5835Z" fill="#919699"/>
</g>
<defs>
<clipPath id="clip0_3382_3537">
<rect width="28" height="28" fill="white" transform="translate(0.5)"/>
</clipPath>
</defs>
</svg>
