<svg width="24" height="25" viewBox="0 0 24 25" fill="none" xmlns="http://www.w3.org/2000/svg">
<g clip-path="url(#clip0_3461_2356)">
<path d="M13.25 16.7496C13.25 17.44 12.6904 17.9996 12 17.9996C11.3096 17.9996 10.75 17.44 10.75 16.7496C10.75 16.0593 11.3096 15.4996 12 15.4996C12.6904 15.4996 13.25 16.0593 13.25 16.7496Z" fill="#919699"/>
<path d="M12 6.49963C11.3235 6.49963 10.7881 7.07188 10.8331 7.74687L11.2001 13.2513C11.2282 13.6724 11.578 13.9996 12 13.9996C12.422 13.9996 12.7718 13.6724 12.7999 13.2513L13.1669 7.74687C13.2118 7.07188 12.6765 6.49963 12 6.49963Z" fill="#919699"/>
<path fill-rule="evenodd" clip-rule="evenodd" d="M11.1063 1.14897C11.6945 1.01415 12.3055 1.01415 12.8937 1.14897C13.5625 1.30227 14.1654 1.68367 14.9654 2.18968L19.912 5.31388C20.617 5.7585 21.1489 6.094 21.5458 6.56026C21.8953 6.9708 22.1582 7.44775 22.3187 7.96246C22.5009 8.54704 22.5006 9.17592 22.5 10.0094V14.9898C22.5006 15.8233 22.5009 16.4522 22.3187 17.0368C22.1582 17.5515 21.8953 18.0284 21.5458 18.439C21.1489 18.9052 20.617 19.2407 19.912 19.6853L14.9654 22.8095C14.1655 23.3155 13.5625 23.6969 12.8937 23.8503C12.3055 23.9851 11.6945 23.9851 11.1063 23.8503C10.4375 23.6969 9.83453 23.3156 9.03456 22.8095L4.08795 19.6853C3.383 19.2407 2.85107 18.9052 2.45415 18.439C2.10467 18.0284 1.84179 17.5515 1.6813 17.0368C1.49903 16.4522 1.49942 15.8233 1.49993 14.9898V10.0094C1.49942 9.17592 1.49903 8.54704 1.6813 7.96246C1.84179 7.44775 2.10467 6.9708 2.45415 6.56026C2.85107 6.094 3.38299 5.7585 4.08795 5.31387L9.03455 2.18968C9.83453 1.68367 10.4375 1.30227 11.1063 1.14897ZM12.4468 3.09841C12.1527 3.031 11.8472 3.031 11.5531 3.09841C11.2603 3.16553 10.9628 3.3374 9.97082 3.96394L5.27081 6.93236C4.39979 7.48248 4.15114 7.65221 3.97707 7.85669C3.80233 8.06196 3.67089 8.30043 3.59064 8.55779C3.51071 8.81416 3.49999 9.11502 3.49999 10.1452V14.854C3.49999 15.8842 3.51071 16.1851 3.59064 16.4414C3.67089 16.6988 3.80233 16.9373 3.97707 17.1425C4.15114 17.347 4.39979 17.5167 5.27081 18.0669L9.97081 21.0353C10.9628 21.6618 11.2603 21.8337 11.5531 21.9008C11.8472 21.9682 12.1527 21.9682 12.4468 21.9008C12.7397 21.8337 13.0371 21.6618 14.0292 21.0353L18.7292 18.0669C19.6002 17.5167 19.8488 17.347 20.0229 17.1425C20.1976 16.9373 20.3291 16.6988 20.4093 16.4414C20.4893 16.1851 20.5 15.8842 20.5 14.854V10.1452C20.5 9.11502 20.4893 8.81416 20.4093 8.55779C20.3291 8.30043 20.1976 8.06196 20.0229 7.85669C19.8488 7.65221 19.6002 7.48248 18.7292 6.93236L14.0292 3.96394C13.0371 3.3374 12.7397 3.16553 12.4468 3.09841Z" fill="#919699"/>
</g>
<defs>
<clipPath id="clip0_3461_2356">
<rect width="24" height="24" fill="white" transform="translate(0 0.5)"/>
</clipPath>
</defs>
</svg>
